<svg width="64" height="65" fill="none" xmlns="http://www.w3.org/2000/svg"><path d="M32 62.6c-16.569 0-30-13.566-30-30.3S15.431 2 32 2c16.569 0 30 13.566 30 30.3S48.569 62.6 32 62.6Z" stroke="#FF8500" stroke-width="3" stroke-miterlimit="10"/><path d="M31.564 21.179c.2-.126.47-.126.668 0l9.954 6.33a.641.641 0 0 0 .581.046l.434-.18c.2-.083.325-.26.322-.452l-.255-16.247c-.004-.269-.256-.485-.565-.485h-.385c-.314 0-.568.221-.568.495l-.013 14.37c-.003.175-.231.274-.393.17l-9.112-5.828a.643.643 0 0 0-.679 0l.01 1.78Z" fill="#5C7AEA"/><path d="M31.564 21.179c.2-.126.47-.126.668 0l9.954 6.33a.641.641 0 0 0 .581.046l.434-.18c.2-.083.325-.26.322-.452l-.255-16.247c-.004-.269-.256-.485-.565-.485h-.385c-.314 0-.568.221-.568.495l-.013 14.37c-.003.175-.231.274-.393.17l-9.112-5.828a.643.643 0 0 0-.679 0l.01 1.78Z" stroke="#457495" stroke-miterlimit="10"/><path d="M32.207 21.179a.636.636 0 0 0-.668 0l-9.954 6.33a.641.641 0 0 1-.582.046l-.433-.18c-.2-.083-.326-.26-.323-.452l.255-16.247c.005-.269.256-.485.566-.485h.384c.314 0 .569.221.57.495l.012 14.37c.002.175.231.274.393.17l9.112-5.828a.643.643 0 0 1 .679 0l-.011 1.78Z" fill="#5C7AEA"/><path d="M32.207 21.179a.636.636 0 0 0-.668 0l-9.954 6.33a.641.641 0 0 1-.582.046l-.433-.18c-.2-.083-.326-.26-.323-.452l.255-16.247c.005-.269.256-.485.566-.485h.384c.314 0 .569.221.57.495l.012 14.37c.002.175.231.274.393.17l9.112-5.828a.643.643 0 0 1 .679 0l-.011 1.78Z" stroke="#457495" stroke-miterlimit="10"/><path d="m18.451 54.927 12.906-9.71a.495.495 0 0 0 .185-.498l-.08-.376a.493.493 0 0 0-.34-.37L20.898 40.92a.493.493 0 0 1-.35-.462l-.256-10.728a.496.496 0 0 0-.268-.43l-.37-.19a.484.484 0 0 0-.524.053L6.507 39.234a.495.495 0 0 0-.084.686l.202.266a.487.487 0 0 0 .687.092l11.291-8.743a.213.213 0 0 1 .34.167l.207 9.843a.498.498 0 0 0 .357.468l9.332 2.738a.22.22 0 0 1 .074.381l-11.251 8.76a.499.499 0 0 0-.09.694l.186.244a.495.495 0 0 0 .693.097Z" fill="#8DA2F0"/><path d="m18.451 54.927 12.906-9.71a.495.495 0 0 0 .185-.498l-.08-.376a.493.493 0 0 0-.34-.37L20.898 40.92a.493.493 0 0 1-.35-.462l-.256-10.728a.496.496 0 0 0-.268-.43l-.37-.19a.484.484 0 0 0-.524.053L6.507 39.234a.495.495 0 0 0-.084.686l.202.266a.487.487 0 0 0 .687.092l11.291-8.743a.213.213 0 0 1 .34.167l.207 9.843a.498.498 0 0 0 .357.468l9.332 2.738a.22.22 0 0 1 .074.381l-11.251 8.76a.499.499 0 0 0-.09.694l.186.244a.495.495 0 0 0 .693.097Z" stroke="#9CC9D0" stroke-miterlimit="10"/><path d="M57.232 39.234 44.61 29.15a.483.483 0 0 0-.524-.051l-.34.175a.496.496 0 0 0-.266.428l-.277 10.762a.493.493 0 0 1-.351.461l-10.195 3.023a.494.494 0 0 0-.342.372l-.087.41a.496.496 0 0 0 .186.497l12.895 9.716a.484.484 0 0 0 .678-.095l.202-.266a.498.498 0 0 0-.09-.694l-11.28-8.758a.216.216 0 0 1 .072-.375l9.36-2.745a.498.498 0 0 0 .357-.469l.206-9.814a.216.216 0 0 1 .346-.17l11.285 8.715a.487.487 0 0 0 .688-.092l.185-.245a.507.507 0 0 0-.086-.701Z" fill="#243D58"/><path d="M57.232 39.234 44.61 29.15a.483.483 0 0 0-.524-.051l-.34.175a.496.496 0 0 0-.266.428l-.277 10.762a.493.493 0 0 1-.351.461l-10.195 3.023a.494.494 0 0 0-.342.372l-.087.41a.496.496 0 0 0 .186.497l12.895 9.716a.484.484 0 0 0 .678-.095l.202-.266a.498.498 0 0 0-.09-.694l-11.28-8.758a.216.216 0 0 1 .072-.375l9.36-2.745a.498.498 0 0 0 .357-.469l.206-9.814a.216.216 0 0 1 .346-.17l11.285 8.715a.487.487 0 0 0 .688-.092l.185-.245a.507.507 0 0 0-.086-.701Z" stroke="#243D58" stroke-miterlimit="10"/></svg>